<svg aria-hidden="true" style="position:absolute;width:0;height:0;overflow:hidden" xmlns="http://www.w3.org/2000/svg"><defs>
<symbol id="icon-arrow" viewBox="0 0 20 20"><path d="M10.592 11.167a.84.84 0 0 1-.912.182.819.819 0 0 1-.271-.182L5.592 7.342a.83.83 0 0 0-.911-.182.83.83 0 0 0-.513.769c0 .22.087.431.242.587l3.825 3.825a2.5 2.5 0 0 0 3.534 0l3.825-3.825a.834.834 0 0 0-1.183-1.175l-3.817 3.825z"/></symbol><symbol id="icon-chocolate-bar" viewBox="0 0 20 20"><path d="m8.639 1.508 4.704 4.71.05-.05a.533.533 0 0 1 .74-.008l.546.546a.53.53 0 0 1 .052.684l-.003.004-.089.12 3.85 3.85a.872.872 0 0 1 0 1.238l-5.894 5.894a.872.872 0 0 1-1.238 0l-2.779-2.779a.523.523 0 0 1-.601.164.528.528 0 0 1-.185-.12l-1.625-1.625a.533.533 0 0 1-.008-.74l.004-.004.048-.048L1.507 8.64a.87.87 0 0 1 0-1.237l5.894-5.894a.872.872 0 0 1 1.238 0v.001zm4.113 5.3-1.098-1.097a.358.358 0 0 0-.265-.112.37.37 0 0 0-.265.112L8.886 7.948a.382.382 0 0 0-.083.415.366.366 0 0 0 .083.123l1.093 1.093.381-.381-.978-.978 2.006-2.013.981.984.383-.383zM9.58 9.978 8.484 8.882a.358.358 0 0 0-.265-.112.37.37 0 0 0-.265.112L5.71 11.126a.37.37 0 0 0 0 .531l1.095 1.095.385-.385-.981-.978 2.012-2.006.978.977.383-.382zM5.514 5.121l2.237 2.237c.15.15.387.15.531-.006l2.238-2.237a.354.354 0 0 0 .112-.263h.006a.38.38 0 0 0-.113-.269L8.288 2.346a.366.366 0 0 0-.269-.112.388.388 0 0 0-.269.112L5.513 4.59a.37.37 0 0 0 0 .531zM2.345 8.289l2.237 2.238c.15.15.388.15.531 0L7.35 8.289a.36.36 0 0 0 .112-.269h.006c0-.1-.038-.194-.112-.269L5.119 5.514a.358.358 0 0 0-.265-.112.37.37 0 0 0-.265.112L2.345 7.758a.37.37 0 0 0 0 .531zm4.333 5.472 1.476 1.477 6.022-8.15-.409-.409-7.089 7.083z"/><path d="m8.639 1.508 4.704 4.71.05-.05a.533.533 0 0 1 .74-.008l.546.546a.53.53 0 0 1 .052.684l-.003.004-.089.12 3.85 3.85a.872.872 0 0 1 0 1.238l-5.894 5.894a.872.872 0 0 1-1.238 0l-2.779-2.779a.523.523 0 0 1-.601.164.528.528 0 0 1-.185-.12l-1.625-1.625a.533.533 0 0 1-.008-.74l.004-.004.048-.048L1.507 8.64a.87.87 0 0 1 0-1.237l5.894-5.894a.872.872 0 0 1 1.238 0v.001zm4.113 5.3-1.098-1.097a.358.358 0 0 0-.265-.112.37.37 0 0 0-.265.112L8.886 7.948a.382.382 0 0 0-.083.415.366.366 0 0 0 .083.123l1.093 1.093.381-.381-.978-.978 2.006-2.013.981.984.383-.383zM9.58 9.978 8.484 8.882a.358.358 0 0 0-.265-.112.37.37 0 0 0-.265.112L5.71 11.126a.37.37 0 0 0 0 .531l1.095 1.095.385-.385-.981-.978 2.012-2.006.978.977.383-.382zM5.514 5.121l2.237 2.237c.15.15.387.15.531-.006l2.238-2.237a.354.354 0 0 0 .112-.263h.006a.38.38 0 0 0-.113-.269L8.288 2.346a.366.366 0 0 0-.269-.112.388.388 0 0 0-.269.112L5.513 4.59a.37.37 0 0 0 0 .531zM2.345 8.289l2.237 2.238c.15.15.388.15.531 0L7.35 8.289a.36.36 0 0 0 .112-.269h.006c0-.1-.038-.194-.112-.269L5.119 5.514a.358.358 0 0 0-.265-.112.37.37 0 0 0-.265.112L2.345 7.758a.37.37 0 0 0 0 .531zm4.333 5.472 1.476 1.477 6.022-8.15-.409-.409-7.089 7.083z"/></symbol><symbol id="icon-chocolate" viewBox="0 0 20 20"><path fill="#fcf1e0" style="fill:var(--color1, #fcf1e0)" d="m2.465 12.547 6.736-10.89.4-.421 5.147 3.432.035 2.071 1.256 2.05-5.55 8.798-8.025-5.039z"/><path fill="none" stroke="#fd9222" style="stroke:var(--color2, #fd9222)" stroke-linejoin="round" stroke-linecap="round" stroke-width="1.667" d="m13.522 14.925-8.866-5.54m2.445-4.011 8.866 5.54m-9.323 5.251 7.335-12.031m3.006 5.109c-1.9-1.187-2.646-2.115-1.424-4.12L9.545 1.364 2.21 13.395l8.866 5.54 5.908-9.692z"/></symbol><symbol id="icon-coin" viewBox="0 0 20 20"><path d="M10 1.667c-4.583 0-8.333 3.75-8.333 8.333s3.75 8.333 8.333 8.333 8.333-3.75 8.333-8.333S14.583 1.667 10 1.667zm0 15c-3.667 0-6.667-3-6.667-6.667s3-6.667 6.667-6.667 6.667 3 6.667 6.667-3 6.667-6.667 6.667z"/><path d="M11.083 9.167H8.916c-.417 0-.75-.333-.75-.75s.333-.75.75-.75h3.083c.5 0 .833-.333.833-.833s-.333-.833-.833-.833h-1.167v-.75c0-.5-.333-.833-.833-.833s-.833.333-.833.833v.75h-.25a2.418 2.418 0 0 0 0 4.834h2.083c.417 0 .75.333.75.75s-.333.75-.75.75H7.916c-.5 0-.833.333-.833.833s.333.833.833.833h1.25v.75c0 .5.333.833.833.833s.833-.333.833-.833v-.75h.25a2.418 2.418 0 0 0 0-4.834z"/></symbol><symbol id="icon-instagram" viewBox="0 0 20 20"><path stroke-linejoin="round" stroke-linecap="round" stroke-width="1.667" d="M14.167 1.667H5.834a4.167 4.167 0 0 0-4.167 4.167v8.333a4.167 4.167 0 0 0 4.167 4.167h8.333a4.167 4.167 0 0 0 4.167-4.167V5.834a4.167 4.167 0 0 0-4.167-4.167z"/><path stroke-linejoin="round" stroke-linecap="round" stroke-width="1.667" d="M13.333 9.475a3.332 3.332 0 0 1-1.799 3.466 3.337 3.337 0 0 1-3.855-.62 3.336 3.336 0 0 1-.62-3.855 3.34 3.34 0 0 1 3.466-1.799 3.33 3.33 0 0 1 2.808 2.808zM14.583 5.417h.008"/></symbol><symbol id="icon-play" viewBox="0 0 20 20"><path d="M6.818 15V5.455l9.091 4.773-9.091 4.773z"/><path stroke-width=".455" d="M19.773 10c0 5.397-4.375 9.773-9.773 9.773S.227 15.398.227 10C.227 4.603 4.602.227 10 .227S19.773 4.602 19.773 10z"/></symbol><symbol id="icon-spoon" viewBox="0 0 20 20"><path d="M9.657 8.816a3.222 3.222 0 0 1-.735-2.051c0-2.702 3.238-5.401 6.476-5.401a3.24 3.24 0 0 1 3.238 3.239c0 3.239-2.698 6.478-5.404 6.478a3.218 3.218 0 0 1-2.051-.736l-7.974 7.976a1.08 1.08 0 1 1-1.528-1.528l7.977-7.976z"/></symbol><symbol id="icon-twitter" viewBox="0 0 20 20"><path stroke-linejoin="round" stroke-linecap="round" stroke-width="1.667" d="M19.167 2.5a9.094 9.094 0 0 1-2.617 1.275 3.737 3.737 0 0 0-4.148-1.038A3.74 3.74 0 0 0 10 6.275v.833c-1.464.038-2.916-.287-4.224-.945S2.925 3.936 2.084 2.737c0 0-2.917 8.096 4.583 11.43a9.703 9.703 0 0 1-5.833 1.667c7.5 4.167 16.667 0 16.667-9.583a3.739 3.739 0 0 0-.067-.692 6.426 6.426 0 0 0 1.733-3.058z"/></symbol>
<symbol id="icon-ukraine" viewBox="0 0 20 20">
    <path fill="#ffd700" style="fill: var(--color5, #ffd700)" d="M19.895 3.161h-19.743v14.693h19.743v-14.693z"></path>
    <path fill="#0057b7" style="fill: var(--color6, #0057b7)" d="M0.152 3.161h19.743v7.346h-19.743v-7.346z"></path>
</symbol>
</defs></svg>